<svg xmlns="http://www.w3.org/2000/svg" width="1750.107" height="746.416" viewBox="0 0 1750.107 746.416">
  <path id="Path_2046" data-name="Path 2046" d="M338.2,678.41c24.18-16.624,40.805-24.181,46.851-52.9,4.534-55.919,57.433-111.838,111.837-120.906v-4.533h-1.511v-107.3L484.8,383.7c-1.512-1.511-3.022-4.534-4.534-7.556a4.68,4.68,0,0,1,1.511,3.022L471.2,397.305l-3.025,15.113c0,6.045,3.025,13.6,7.557,21.158,10.581,16.625,16.627,27.2,16.627,31.738a24.37,24.37,0,0,1-4.535,13.6c-3.022,4.534-7.556,7.556-12.091,7.556s-7.555-1.511-10.579-3.022a8.315,8.315,0,0,1-4.534-7.557c0-6.046,3.024-9.068,7.558-12.091,1.512-1.511,3.022-1.511,7.555-3.023a47.945,47.945,0,0,0-7.555-9.068,20.827,20.827,0,0,1-6.044-4.534c-4.535-6.045-10.58-10.579-15.115-16.625s-7.555-10.579-9.068-12.091-1.512-4.534-1.512-7.556-1.512-6.045-1.512-9.068A182.208,182.208,0,0,1,418.3,386.726c-10.58-12.09-16.625-21.158-16.625-30.226,0-7.556,1.512-12.091,4.533-16.624,1.512,1.511,4.534,3.023,7.557,4.534s6.045,3.023,9.069,3.023c4.533,0,9.068-1.511,15.113-4.534s10.579-7.557,15.113-12.091c1.512-1.511,3.024-3.023,3.024-4.534-1.512,1.512-1.512,3.023-3.024,3.023,0-12.091-24.181-19.647-36.272-13.6-3.022,1.511-6.046,3.022-7.557,4.534q-4.534-4.534-4.532-13.6c0-6.045,1.509-10.579,4.532-18.136,3.025-6.045,9.069-13.6,18.138-21.159a41.294,41.294,0,0,0,7.554-6.045c3.024-6.046,6.047-15.113,9.069-28.715a383.988,383.988,0,0,1,28.715-31.738c-24.18-21.159-4.532-39.294,12.092-28.715,1.512,1.511,3.022,4.534,6.046,7.556v13.6h0c0,1.511-1.511,3.023-3.024,6.045,0,1.511-1.511,3.023-3.022,6.046a65.648,65.648,0,0,1-9.07,10.579q-9.064,13.6-9.069,27.2c0,3.023,0,6.045,1.512,9.068s3.025,6.045,4.535,9.068c0,4.534,4.533,9.068,12.092,16.624h0c1.511-1.511,6.044-7.557,6.044-10.579,1.512-3.023,1.512-6.045,1.512-9.068,1.512-4.534,1.512-7.557,1.512-15.113V102.6c31.737-13.6,43.828-34.761,52.9-66.5V280.934c-19.648-3.023-28.716-3.023-45.341,10.579L499.912,290h0c15.111,10.579,31.736,22.67,51.382,33.249v3.023c-10.578,3.023-16.622,6.046-21.159,9.068-12.09,6.046-27.2,13.6-34.761,19.647l-1.509-1.511,1.509,1.511c7.558,7.556,21.162,10.579,36.273,10.579h15.114V494.03h0v173.8c0,18.136,0,21.159,1.511,27.2,1.512,9.068,7.557,16.625,16.625,21.159,16.624,10.579,40.805,12.091,55.917,0a30.723,30.723,0,0,0,13.6-18.136c1.511-7.557,3.022-10.579,3.022-27.2V593.777h0l.92-51.385,51.977-4.533v16.624h0v64.987H898.9v51.385c0,18.136,0,21.159,1.511,27.2,1.511,9.068,7.558,16.625,16.625,21.158,16.625,10.579,39.295,12.091,55.92,0q11.335-6.8,13.6-18.136c1.512-7.556,1.512-10.579,1.512-27.2V592.265h0v-160.2c30.227-13.6,42.318-34.76,51.385-66.5V620.98h167.756V584.708H1096.883c0-1.512-1.512-4.534-3.024-9.068a26.449,26.449,0,0,1-1.511-7.556c0-46.851,13.6-83.123,37.782-108.815,13.6-13.6,37.783-28.715,77.077-46.851,31.739-15.113,49.873-30.227,54.406-46.851V620.981h210.075l-18.138,51.385h-414.1c0,24.181-1.512,42.317-4.536,52.9-19.646,77.077-163.221,69.521-181.358,1.511q-4.533-18.136-4.533-54.408H691.848q0,38.539-4.534,54.408c-19.646,77.077-166.244,71.032-185.89,1.511q-4.536-18.136-4.536-49.873c-52.9-1.512-105.792,0-158.688,0Zm6.045-131.484c6.046-9.067,19.646-12.091,28.716-6.045s12.09,19.647,6.045,28.715-19.647,12.091-28.715,6.045-12.09-19.647-6.046-28.715ZM372.96,506.12c6.045-9.068,19.648-12.09,28.714-6.045s12.091,19.647,6.045,28.715-19.647,12.091-28.714,6.045c-10.579-6.045-12.09-19.647-6.045-28.715ZM740.21,704.1a21.159,21.159,0,1,1-21.159,21.158c0-12.091,10.58-21.158,21.159-21.158Zm49.874,0a21.159,21.159,0,1,1-21.158,21.158c1.51-12.091,10.577-21.158,21.158-21.158ZM1974.959,247.685c0,7.556,0,9.068,1.508,15.113,0,3.023,1.513,6.045,1.513,9.068,1.512,3.023,4.536,9.068,6.045,10.579h0c7.556-7.556,12.091-12.09,12.091-16.624,1.511-3.023,3.022-6.045,3.022-9.068,1.511-3.023,1.511-6.045,1.511-9.068,0-9.068-3.023-18.136-7.555-27.2-3.026-3.023-6.046-7.557-9.07-10.579-1.51-3.023-3.021-4.534-3.021-6.045-1.512-1.511-1.512-4.534-3.024-6.045h0v-13.6c1.512-4.534,4.534-7.556,6.043-7.556,15.116-10.579,33.252,7.556,10.582,28.715q20.4,18.136,27.2,31.738c3.022,13.6,6.045,22.67,9.067,28.715,1.512,0,3.022,3.023,7.556,6.045,9.069,7.557,15.112,15.113,16.624,21.159,3.024,7.557,4.533,12.09,4.533,18.136s-1.509,10.579-4.533,13.6c-1.511-1.512-4.532-4.534-7.555-4.534-10.579-4.534-34.762,3.023-34.762,13.6a5.277,5.277,0,0,0-1.511-3.023c1.511,1.511,1.511,3.023,3.023,4.534,3.024,4.534,9.067,9.068,13.6,12.091a24.378,24.378,0,0,0,13.6,4.534c3.024,0,6.046,0,9.068-3.023,3.023-1.511,6.045-3.023,7.557-4.534a46.7,46.7,0,0,1,3.021,16.625c0,9.068-4.532,18.135-15.112,30.226-3.022,3.023-7.557,9.068-15.113,15.113,0,3.023,0,6.046-1.51,9.068,0,3.022-1.511,6.045-1.511,7.556-1.512,1.512-3.023,6.045-7.557,12.091s-9.068,12.09-13.6,16.624c-1.51,1.512-3.022,1.512-6.045,4.534a15.473,15.473,0,0,0-7.555,9.068c3.022,1.512,6.044,3.023,7.555,3.023,4.535,3.023,6.045,6.045,6.045,12.091,0,3.023-1.51,4.534-4.534,7.557-3.022,1.511-6.044,3.022-10.58,3.022s-9.066-3.022-12.09-7.557a24.362,24.362,0,0,1-4.532-13.6c0-4.534,4.532-15.113,15.114-31.738,4.532-7.556,7.555-15.113,7.555-21.158l-3.023-15.113-10.58-18.136c0-1.511,0-1.511,1.512-3.023-1.512,3.023-3.022,6.045-4.534,7.557l-9.069,9.068V622.491h46.851c13.6,30.227,36.271,40.806,69.521,49.874H1920.551V371.613h15.113c15.111,0,27.2-4.534,34.758-10.579a1.481,1.481,0,0,1,1.513-1.512l-1.513,1.512c-7.556-6.046-22.667-15.113-33.247-19.648-4.534-1.511-10.579-4.534-19.646-9.068V329.3c18.136-10.579,34.759-21.158,48.363-33.249h0l-1.513,1.511c-16.623-12.09-24.182-13.6-43.828-10.579V40.634c9.067,31.738,21.157,52.9,51.384,66.5,3.024,46.851,3.024,93.7,3.024,140.553Zm21.157,86.145h0a1.48,1.48,0,0,0-1.511-1.511c-3.024,4.534-15.114,19.647-13.6,18.136-3.024-3.022-10.582-6.045-12.092-7.557-6.046-4.534-13.6-7.557-19.647-10.579,4.533-7.556,18.138-18.136,39.3-31.737,13.6-9.068,25.692-13.6,34.758-13.6A23.407,23.407,0,0,1,2035.41,290l6.045,6.045h-4.533c-12.091,0-27.2,4.534-31.737,16.624a1.48,1.48,0,0,0,1.51,1.511c-3.022-7.556-7.556-13.6-10.579-19.647l-13.6,9.068c1.51,4.534,6.042,15.113,9.066,19.647a73.916,73.916,0,0,0,4.535,10.579Zm10.579,15.113h0c0,1.511-6.045,6.045-7.556,10.579-1.511,3.023-3.022,4.534-3.022,6.045a1.48,1.48,0,0,1,1.511-1.511c3.023,3.023,12.089,9.068,16.624,10.579,1.511,0,4.535,1.512,7.557,3.023,3.022,0,6.045-1.511,10.579-3.023s7.556-4.533,10.579-7.556c-3.023-1.511-6.044-1.511-9.068-3.023a73.659,73.659,0,0,0-10.58-4.534c-6.044-3.022-10.579-6.045-13.6-10.579-3.024,1.511-3.024,1.511-3.024,0ZM474.219,333.83h0a1.479,1.479,0,0,1,1.51-1.511c3.025,4.534,15.115,19.647,15.115,18.136,3.022-3.022,10.58-6.045,13.6-7.557,7.558-4.534,13.6-7.557,19.648-10.579q-6.8-11.334-40.807-31.737-22.671-13.6-36.271-13.6a30.178,30.178,0,0,0-13.6,3.023,54.467,54.467,0,0,1-7.556,6.045h4.534c12.089,0,28.714,4.534,33.246,16.624l-1.508,1.511c3.02-7.556,7.556-13.6,10.576-19.647L487.82,303.6c-1.51,4.534-7.556,15.113-9.066,19.647a74.105,74.105,0,0,1-4.534,10.579Zm-12.09,15.113h0c0,1.511,6.042,6.045,7.556,10.579,1.511,3.023,3.021,4.534,3.021,6.045a1.48,1.48,0,0,0-1.51-1.511c-4.534,3.023-12.091,9.068-18.137,10.579-1.512,0-4.534,1.512-9.068,3.023-3.023,0-6.045-1.511-10.579-3.023s-7.556-4.533-10.58-7.556c3.024-1.511,6.045-1.511,9.069-3.023a73.647,73.647,0,0,1,10.579-4.534,54.264,54.264,0,0,0,15.113-10.579c4.537,1.511,4.537,1.511,4.537,0ZM492.355,620.98h-52.9c7.555-28.715,22.671-49.873,54.407-55.918-1.511,18.135-1.511,37.783-1.511,55.918ZM1781.508,249.2c0,7.557,0,9.068-1.51,15.113,0,3.023-1.511,6.045-1.511,9.068-1.512,3.023-4.535,9.068-6.046,10.579h0c-7.556-7.556-12.091-13.6-12.091-16.624-1.511-3.023-3.021-6.045-3.021-9.068-1.514-3.023-1.514-6.045-1.514-9.068,0-9.068,3.024-18.136,7.559-27.2,3.021-3.023,6.045-7.557,9.066-12.09,1.511-3.023,3.022-4.534,3.022-6.045,1.512-1.511,1.512-4.534,1.512-6.045h0v-13.6a21.307,21.307,0,0,0-4.534-7.556c-15.11-12.091-33.248,7.556-10.579,28.715a240.563,240.563,0,0,0-28.713,30.226c-3.026,13.6-6.045,22.67-9.069,28.715-1.512,0-3.023,3.023-7.556,6.045-9.068,7.557-15.114,15.113-16.625,22.67a40.224,40.224,0,0,0-4.535,18.136q0,9.068,4.535,13.6c1.51-1.512,4.532-4.534,7.556-6.046,10.579-4.534,33.249,3.023,33.249,15.113,1.511-1.511,1.511-1.511,1.511-3.023-1.511,1.511-1.511,3.023-3.022,4.534-3.024,4.534-9.07,9.068-15.114,12.091a24.379,24.379,0,0,1-13.6,4.534c-3.022,0-6.045,0-9.068-3.023-3.022-1.511-6.045-3.023-7.557-4.534a46.629,46.629,0,0,0-3.022,16.625c0,7.556,4.534,18.135,15.112,28.715l15.113,15.113v9.068c0,3.023,1.512,6.045,1.512,7.557,1.512,1.511,4.533,6.045,9.067,12.09s9.069,12.091,15.114,16.625c1.511,0,3.024,1.511,6.045,4.534,3.023,1.511,4.535,4.534,7.556,9.068-4.533,1.511-6.045,3.023-7.556,3.023-4.535,3.022-6.045,7.556-6.045,12.091,0,3.022,1.511,4.534,4.532,7.556,3.024,1.512,6.048,3.023,10.58,3.023s9.068-3.023,12.09-7.557a24.377,24.377,0,0,0,4.535-13.6c0-4.534-6.046-15.113-15.112-31.737-4.535-7.557-7.559-15.113-7.559-21.159l3.024-15.113,9.068-18.136c0-1.511,0-1.511-1.513-3.023,1.513,3.023,3.025,6.045,4.534,7.557l9.069,9.068V593.776h0v81.612c0,16.624-1.511,19.647-3.023,27.2s-6.045,13.6-13.6,18.136c-16.625,10.58-37.785,10.58-55.919,0-7.558-6.045-13.6-12.091-15.115-21.158-1.51-6.045-1.51-9.068-1.51-27.2V620.98H1483.779l16.622,51.385h142.066q0,36.271,4.533,54.407c18.137,68.009,161.713,75.566,182.87-1.512q4.535-15.869,4.535-54.407V557.5h0V376.146h-15.114c-15.112,0-27.2-4.534-34.76-12.091l-1.511-1.511a1.48,1.48,0,0,0,1.511,1.511c7.556-6.046,22.67-15.113,33.249-21.158,4.535-1.512,10.579-4.534,19.646-9.068v-3.023a446.418,446.418,0,0,1-48.361-33.249h0a1.478,1.478,0,0,1,1.509,1.512c16.628-12.091,24.184-13.6,43.831-10.579V42.145c-9.069,31.738-21.159,52.9-51.385,66.5-1.513,46.851-1.513,93.7-1.513,140.553ZM1417.279,453.224c18.137-25.693,34.763-45.34,57.432-66.5,31.738,24.181,43.828,37.783,66.5,71.032,42.318,24.181,68.01,51.385,89.169,96.724,1.51,0,1.51,1.511,3.021,1.511h-3.021c-54.409-3.022-69.523,0-116.372,24.181q11.333,20.4,22.668,40.805H1412.747c7.556-12.091,15.112-25.692,22.669-37.783-42.316-30.226-55.92-28.715-108.813-24.181h-7.558c24.182-48.362,51.386-77.077,98.234-105.792Zm64.988,87.656c13.6-9.068,27.2-18.136,40.807-25.692,1.511-1.512,1.511-3.023,0-6.045-7.558-3.023-16.625-7.557-24.181-10.579-7.558-12.091-13.6-24.181-21.158-34.76a4.6,4.6,0,0,0-6.045,0c-6.045,12.091-13.6,24.181-19.646,36.272-6.046,3.022-13.6,6.045-19.648,9.068-3.022,1.511-4.533,4.534-3.022,7.557,13.6,7.557,28.715,16.624,42.316,24.181a12.9,12.9,0,0,0,10.578,0ZM1760.35,335.341h0a1.48,1.48,0,0,1,1.511-1.511c3.023,4.534,15.113,19.647,13.6,18.136,3.024-3.023,10.581-7.557,12.092-7.557,7.555-4.534,13.6-7.557,19.647-10.579-4.535-7.557-18.136-18.136-39.3-31.738-13.6-9.068-25.693-13.6-34.761-13.6a23.425,23.425,0,0,0-12.092,3.023l-6.043,6.045h4.534c12.09,0,27.2,4.534,31.736,16.625a1.48,1.48,0,0,1-1.51,1.511h0c3.023-6.046,7.558-13.6,10.578-19.647l13.6,9.068c-1.511,4.534-6.045,15.113-9.068,19.647,0,4.534-3.022,9.068-4.534,10.579Zm-9.068,15.113h0c-1.51,0-1.51,1.512,0,0,0,1.512,4.534,6.046,7.558,10.58,1.511,3.022,3.022,4.534,3.022,6.045a1.48,1.48,0,0,0-1.511-1.511c-3.021,1.511-12.09,9.068-16.623,10.58-1.512,0-4.534,1.511-7.558,3.022a16.3,16.3,0,0,1-10.58-3.022c-4.534-1.511-7.556-4.534-10.578-7.557,3.023-1.511,6.043-1.511,9.068-3.023a73.534,73.534,0,0,1,10.58-4.534c6.045-3.023,10.579-6.045,13.6-10.58,1.512,1.512,1.512,1.512,3.022,0ZM690.336,250.707c0,7.556,0,9.068,1.513,15.113,0,3.023,1.51,6.045,1.51,9.068,1.512,3.023,4.533,9.068,6.045,10.579h0c7.557-7.556,12.091-13.6,12.091-16.625,1.511-3.023,3.023-6.045,3.023-9.068,1.51-3.023,1.51-6.045,1.51-9.068,0-9.068-3.022-18.136-7.555-27.2-3.023-3.023-6.045-7.557-9.07-10.579-1.512-3.023-3.021-4.534-3.021-6.045-1.511-1.511-1.511-4.534-3.023-6.045h0v-13.6c1.512-4.534,3.023-7.556,6.044-9.068,15.114-10.579,33.25,7.556,10.58,28.715q20.4,18.136,27.2,31.738c3.022,13.6,6.044,22.67,9.067,28.715,1.51,0,3.024,3.022,7.556,6.045,9.067,7.556,15.113,15.113,16.625,22.67a40.245,40.245,0,0,1,4.535,18.136q0,9.067-4.535,13.6c-1.512-1.511-4.534-4.534-7.558-6.045-10.577-4.534-33.246,3.023-33.246,15.113-1.512-1.511-1.512-3.023-3.024-3.023,1.512,1.511,1.512,3.023,3.024,4.534,3.022,4.534,9.067,9.068,13.6,12.091q9.067,4.534,13.6,4.534c3.023,0,6.044-1.511,9.068-3.022s6.043-3.023,7.557-4.534c3.022,4.534,3.022,9.068,3.022,16.624,0,9.068-4.532,18.136-15.111,30.226-3.024,3.023-7.559,9.068-15.115,15.113,0,3.023,0,6.046-1.512,9.068,0,3.023-1.511,6.046-1.511,7.557-1.51,1.511-4.534,6.045-9.068,12.09S725.1,450.2,719.052,454.735q-2.27,0-4.534,4.534c-3.023,1.511-4.534,4.534-7.557,9.068,3.023,1.511,6.046,3.023,7.557,3.023,4.534,3.022,6.046,6.045,6.046,12.09,0,3.022-1.511,4.534-4.536,7.557-3.021,1.511-6.044,3.023-10.577,3.023s-9.068-1.512-12.091-7.557a24.372,24.372,0,0,1-4.536-13.6c0-4.534,4.536-15.113,15.116-31.738,4.532-7.557,7.556-15.113,7.556-21.159l-3.024-15.113-10.579-18.136c0-1.511,0-1.511,1.511-3.022-1.511,3.022-3.02,6.045-4.531,7.557l-9.071,9.068,4.535,137.531-51.011,4.533h-.966l-3.942-169.267h15.114c15.112,0,27.2-4.534,34.761-10.579a1.479,1.479,0,0,1,1.51-1.511l-1.51,1.511c-7.558-6.045-22.67-15.113-33.249-19.647-4.535-1.511-10.579-4.534-19.647-9.068v-3.023a446.535,446.535,0,0,0,48.363-33.249h0l-1.511,1.511c-16.624-12.091-24.182-13.6-43.829-10.579V43.657c9.068,31.737,21.159,52.9,51.384,66.5q4.534,70.277,4.535,140.553Zm19.647,86.145h0c0-1.511,0-1.511-1.512-1.511-3.021,4.534-15.112,19.647-13.6,18.136-3.024-3.023-10.58-6.045-12.092-9.068-6.047-4.534-13.6-7.557-19.647-10.579,4.534-7.557,18.137-18.136,39.3-31.738,13.6-9.068,25.691-13.6,34.759-13.6,6.044,0,10.578,1.512,12.091,3.023l6.044,6.045h-4.535c-12.09,0-27.2,4.534-31.736,16.625,0,1.511,0,1.511,1.511,1.511h0c-3.022-6.046-7.557-13.6-10.58-19.647l-13.6,9.068c1.51,4.534,6.044,15.113,9.068,19.647a51.2,51.2,0,0,0,4.533,12.09Zm10.58,13.6h0c0,1.512,1.511,1.512,0,0,0,1.512-6.045,6.046-7.557,12.091-1.511,1.511-3.023,4.534-3.023,6.045h0v-1.511c3.023,3.023,12.091,9.068,16.626,10.579,1.51,1.511,4.533,1.511,7.556,3.022,3.022,0,6.044-1.511,10.577-3.022s7.558-4.534,10.582-7.557c-3.023-1.512-6.045-1.512-9.069-3.023a73.729,73.729,0,0,0-10.578-4.534c-6.046-3.023-10.581-6.045-13.6-10.579,0,1.511,0,0-1.511-1.512Zm438.282-31.738A20.662,20.662,0,0,1,1180,339.875c0,10.579-9.069,21.159-21.159,21.159a21.159,21.159,0,0,1,0-42.317Zm52.9,0a20.662,20.662,0,0,1,21.16,21.158c0,10.579-9.069,21.159-21.16,21.159a21.159,21.159,0,0,1,0-42.317Zm-10.58,158.689c-7.557,4.534-15.113,10.579-24.181,19.647s-15.112,18.136-18.135,27.2h42.317Z" transform="translate(-338.2 -36.1)" fill="#016362" fill-rule="evenodd" opacity="0.04"/>
</svg>
