<svg xmlns="http://www.w3.org/2000/svg" width="189.972" height="219.611" viewBox="0 0 189.972 219.611">
  <g id="cal_icon_" data-name="cal icon " transform="translate(-59.065 -64.51)">
    <path id="Icon_awesome-calendar-alt" data-name="Icon awesome-calendar-alt" d="M0,196.757a20.359,20.359,0,0,0,20.354,20.354H169.618a20.359,20.359,0,0,0,20.354-20.354V81.417H0Zm135.694-83.113a5.1,5.1,0,0,1,5.089-5.089h16.962a5.1,5.1,0,0,1,5.089,5.089v16.962a5.1,5.1,0,0,1-5.089,5.089H140.783a5.1,5.1,0,0,1-5.089-5.089Zm0,54.278a5.1,5.1,0,0,1,5.089-5.089h16.962a5.1,5.1,0,0,1,5.089,5.089v16.962a5.1,5.1,0,0,1-5.089,5.089H140.783a5.1,5.1,0,0,1-5.089-5.089ZM81.417,113.644a5.1,5.1,0,0,1,5.089-5.089h16.962a5.1,5.1,0,0,1,5.089,5.089v16.962a5.1,5.1,0,0,1-5.089,5.089H86.505a5.1,5.1,0,0,1-5.089-5.089Zm0,54.278a5.1,5.1,0,0,1,5.089-5.089h16.962a5.1,5.1,0,0,1,5.089,5.089v16.962a5.1,5.1,0,0,1-5.089,5.089H86.505a5.1,5.1,0,0,1-5.089-5.089ZM27.139,113.644a5.1,5.1,0,0,1,5.089-5.089H49.189a5.1,5.1,0,0,1,5.089,5.089v16.962a5.1,5.1,0,0,1-5.089,5.089H32.227a5.1,5.1,0,0,1-5.089-5.089Zm0,54.278a5.1,5.1,0,0,1,5.089-5.089H49.189a5.1,5.1,0,0,1,5.089,5.089v16.962a5.1,5.1,0,0,1-5.089,5.089H32.227a5.1,5.1,0,0,1-5.089-5.089ZM169.618,27.139H149.264V6.785A6.8,6.8,0,0,0,142.479,0H128.91a6.8,6.8,0,0,0-6.785,6.785V27.139H67.847V6.785A6.8,6.8,0,0,0,61.062,0H47.493a6.8,6.8,0,0,0-6.785,6.785V27.139H20.354A20.359,20.359,0,0,0,0,47.493V67.847H189.972V47.493A20.359,20.359,0,0,0,169.618,27.139Z" transform="translate(59.065 67.01)" fill="#003434"/>
    <line id="Line_44" data-name="Line 44" y1="15.49" transform="translate(113.758 67.01)" fill="none" stroke="#f6f6f6" stroke-linecap="round" stroke-width="5"/>
    <line id="Line_45" data-name="Line 45" y1="15.49" transform="translate(194.758 67.01)" fill="none" stroke="#f6f6f6" stroke-linecap="round" stroke-width="5"/>
  </g>
</svg>
