<svg xmlns="http://www.w3.org/2000/svg" width="225.585" height="225.585" viewBox="0 0 225.585 225.585">
  <g id="logo" transform="translate(-41.551 -24.009)">
    <rect id="Rectangle_539" data-name="Rectangle 539" width="225.585" height="225.585" transform="translate(41.551 24.009)" fill="#016362"/>
    <path id="Path_2101" data-name="Path 2101" d="M570.018,47.107l35.344,35.818c3.8-.237,7.353-.712,11.149-.949-.474-14.47-8.777-23.009-18.739-32.5,9.963-8.065,25.144-1.186,35.344,3.558,14.707-9.251,23.958-6.4,36.056-7.828-1.9,12.572,4.507,23.484-3.558,38.665,2.609,8.3,11.623,29.177,3.321,36.056-9.963-9.963-18.028-16.6-32.26-17.791,0,4.27.474,8.3.474,12.572l32.023,32.26-34.632,35.107c0,4.507-.474,8.54-.474,13.046,14-1.423,22.3-7.828,32.26-17.791,8.3,6.879-.949,27.753-3.321,36.056,8.3,15.181,1.66,26.093,3.558,38.665-11.861-1.423-21.349,1.423-36.056-7.828-10.2,4.981-25.381,11.623-35.344,3.8,9.963-9.251,18.265-18.028,18.74-32.5-4.033-.237-7.591-.712-11.623-.949l-32.5,32.735-34.4-34.87c-3.558.237-6.642.712-10.2.949.474,14.47,8.777,23.009,18.74,32.5-9.963,8.065-25.144,1.186-35.344-3.8-14.707,9.251-23.958,6.4-36.056,7.828,1.9-12.572-4.507-23.484,3.558-38.665-2.372-8.3-11.623-29.177-3.321-36.056,9.963,9.963,18.028,16.6,32.26,17.791,0-4.033-.237-7.591-.474-11.386l-33.921-34.4,33.921-34.4c0-4.507.474-8.54.474-13.284-14.233,1.423-22.3,7.828-32.26,17.791-8.3-6.879.949-27.753,3.321-36.056-8.065-15.181-1.66-26.093-3.558-38.665,11.86,1.423,21.349-1.423,36.056,7.828,10.2-4.981,25.381-11.623,35.344-3.8-9.963,9.251-18.265,18.028-18.74,32.5,4.033.237,7.591.712,11.623,1.186v.237ZM489.367,220.032c-1.423,1.423-2.609,2.846-4.033,4.27-.712,5.219,2.609,9.251,8.3,9.963,1.9-1.66,3.8-3.558,5.693-5.219,3.8-1.186,14,1.66,16.13,1.186-3.321-5.693-4.507-14.707-6.167-21.349a79.423,79.423,0,0,1-21.823-6.4c.475,3.558,3.321,13.046,1.9,17.553Zm0-147.543c-1.423-1.423-2.609-2.847-4.033-4.27-.712-5.219,2.609-9.251,8.3-9.963,1.9,1.66,3.8,3.321,5.693,5.219,3.8,1.186,14-1.66,16.13-1.186-3.321,5.693-4.507,14.707-6.167,21.349-8.54,1.423-13.758,2.609-21.823,6.4.475-3.558,3.321-13.046,1.9-17.553Zm163.2,2.609c1.423-1.423,2.609-2.847,4.033-4.033.712-5.219-2.609-9.251-8.3-9.963-1.9,1.66-3.8,3.558-5.693,5.219-3.8,1.186-14-1.66-16.13-1.186,3.321,5.693,4.507,14.707,6.167,21.349,8.777,1.423,13.758,2.609,21.823,6.4-.474-3.8-3.321-13.284-1.9-17.791Zm-2.609,147.069c1.423,1.423,2.609,2.846,4.033,4.033.711,5.456-2.609,9.251-8.3,9.963-1.9-1.66-3.8-3.558-5.693-5.219-3.8-1.186-14,1.66-16.13,1.186,3.321-5.693,4.507-14.707,6.167-21.349,8.539-1.423,13.758-2.609,21.823-6.4-.474,3.8-3.321,13.284-1.9,17.791ZM570.018,73.437l29.177,28.7H614.85v15.419l30.126,29.651L614.85,176.86v15.419H599.194l-29.177,28.7-29.177-28.7H525.185V176.86L495.06,147.209l30.125-29.651V102.139h15.656Z" transform="translate(-416.742 -10.527)" fill="#fff" fill-rule="evenodd"/>
  </g>
</svg>
