<svg xmlns="http://www.w3.org/2000/svg" width="1149.267" height="1185.806" viewBox="0 0 1149.267 1185.806">
  <path id="Path_158" data-name="Path 158" d="M1039.176,68.116l200.1,202.782c21.487-1.343,41.631-4.029,63.12-5.372C1299.7,183.607,1252.7,135.262,1196.3,81.545c56.4-45.66,142.346-6.715,200.1,20.144,83.262-52.374,135.637-36.259,204.125-44.317-10.742,71.176,25.517,132.95-20.145,218.9,14.772,47,65.8,165.18,18.8,204.125-56.4-56.4-102.06-94-182.636-100.72,0,24.173,2.687,47,2.687,71.175l181.294,182.638L1404.456,832.242c0,25.516-2.686,48.345-2.686,73.861,79.232-8.058,126.235-44.317,182.639-100.72,47,38.945-5.374,157.123-18.806,204.125,47.007,85.947,9.405,147.722,20.146,218.9-67.147-8.058-120.863,8.058-204.126-44.317-57.743,28.2-143.694,65.8-200.1,21.487,56.4-52.374,103.408-102.062,106.093-183.981-22.83-1.343-42.972-4.029-65.8-5.372l-183.981,185.324L843.11,1004.137c-20.143,1.343-37.6,4.029-57.748,5.372,2.687,81.918,49.689,130.264,106.092,183.981-56.4,45.66-142.351,6.715-200.1-21.487-83.262,52.374-135.637,36.259-204.125,44.317,10.743-71.175-25.516-132.95,20.144-218.9-13.43-47-65.8-165.18-18.8-204.125,56.4,56.4,102.063,94,182.638,100.72,0-22.83-1.344-42.974-2.687-64.461L476.49,634.832,668.528,440.107c0-25.516,2.687-48.345,2.687-75.2-80.576,8.058-126.235,44.317-182.638,100.719-47-38.945,5.37-157.122,18.8-204.125-45.659-85.948-9.4-147.722-20.144-218.9,67.146,8.057,120.863-8.058,204.125,44.317,57.745-28.2,143.693-65.8,200.1-21.487-56.4,52.374-103.405,102.063-106.092,183.981,22.832,1.343,42.975,4.029,65.8,6.715v1.343ZM582.58,1047.11c-8.058,8.057-14.771,16.115-22.83,24.173-4.029,29.544,14.772,52.374,47,56.4,10.742-9.4,21.486-20.144,32.229-29.544,21.487-6.715,79.232,9.4,91.319,6.714-18.8-32.23-25.516-83.261-34.916-120.863-48.347-8.058-77.891-16.115-123.549-36.259,2.685,20.144,18.8,73.861,10.743,99.377Zm0-835.3c-8.058-8.058-14.771-16.115-22.83-24.173-4.029-29.545,14.772-52.374,47-56.4,10.742,9.4,21.486,18.8,32.229,29.544,21.487,6.715,79.232-9.4,91.319-6.714-18.8,32.23-25.516,83.262-34.916,120.864C647.04,282.984,617.5,289.7,571.837,311.186c2.685-20.144,18.8-73.861,10.743-99.377Zm923.933,14.772c8.059-8.057,14.773-16.115,22.833-22.83,4.029-29.545-14.774-52.374-47-56.4-10.743,9.4-21.487,20.144-32.231,29.544-21.484,6.715-79.234-9.4-91.321-6.715,18.8,32.23,25.519,83.262,34.918,120.864,49.688,8.058,77.892,14.772,123.551,36.259-2.687-21.487-18.8-75.2-10.746-100.72ZM1491.745,1059.2c8.056,8.057,14.769,16.115,22.827,22.83,4.03,30.887-14.768,52.374-47,56.4-10.742-9.4-21.486-20.144-32.231-29.544-21.486-6.715-79.234,9.4-91.319,6.715,18.8-32.23,25.517-83.262,34.917-120.864,48.346-8.057,77.892-14.772,123.548-36.259-2.685,21.487-18.8,75.2-10.74,100.72ZM1039.176,217.181l165.18,162.495h88.632v87.29l170.554,167.866L1292.988,802.7v87.29h-88.632l-165.18,162.494L874,889.988H785.362V802.7L614.811,634.832,785.362,466.965v-87.29H874Z" transform="translate(-469.37 -42.6)" fill="#004e4e" fill-rule="evenodd" opacity="0.06"/>
</svg>
